<?xml version="1.0" encoding="utf-8"?>
<!-- Svg Vector Icons : http://www.onlinewebfonts.com/icon -->
<!DOCTYPE svg PUBLIC "-//W3C//DTD SVG 1.1//EN" "http://www.w3.org/Graphics/SVG/1.1/DTD/svg11.dtd">
<svg version="1.1" xmlns="http://www.w3.org/2000/svg" xmlns:xlink="http://www.w3.org/1999/xlink" x="0px" y="0px" viewBox="0 0 1000 1000" enable-background="new 0 0 1000 1000" xml:space="preserve">
<metadata> Svg Vector Icons : http://www.onlinewebfonts.com/icon </metadata>
<g><path d="M451.8,339h96.4v321.2h-96.4V339z M451.8,724.4h96.4v96.4h-96.4V724.4z"/><path d="M474.7,105L474.7,105c7.3,13.3,43.2,13.3,50.5,0L73.3,924.1c6.6-11.9-9.6-39.1-22.9-39.1h899.2c-13.3,0-29.5,27.2-22.9,39.1L474.7,105z M531,74L531,74l451.9,819.1c17.1,31,2.2,56.2-33.3,56.2H50.4c-35.5,0-50.4-25.1-33.3-56.2L469,74C486.1,43,513.9,43,531,74L531,74z"/></g>
</svg>