<?xml version="1.0" encoding="utf-8"?>
<!-- Svg Vector Icons : http://www.onlinewebfonts.com/icon -->
<!DOCTYPE svg PUBLIC "-//W3C//DTD SVG 1.1//EN" "http://www.w3.org/Graphics/SVG/1.1/DTD/svg11.dtd">
<svg version="1.1" xmlns="http://www.w3.org/2000/svg" xmlns:xlink="http://www.w3.org/1999/xlink" x="0px" y="0px" viewBox="0 0 1000 1000" enable-background="new 0 0 1000 1000" xml:space="preserve">
<metadata> Svg Vector Icons : http://www.onlinewebfonts.com/icon </metadata>
<g><g transform="translate(0.000000,469.000000) scale(0.100000,-0.100000)"><path d="M4788.7,4151.2c-222.2-59.4-429.1-231.8-528.7-442.5c-32.6-70.9-57.5-168.6-70.9-283.5l-21.1-176.2l-191.6-63.2c-272-88.1-415.7-157.1-630.2-298.8c-454-302.7-827.5-768.1-996.1-1245.1c-113-314.1-113-331.4-128.3-1530.5c-15.3-1193.4-19.2-1249-128.3-1666.5C1946-2124.2,1651-2656.7,1252.6-3078.1c-74.7-78.6-147.5-162.8-159-187.7c-28.7-53.7-11.5-141.8,36.4-185.8c34.5-30.6,1097.6-226,2055.4-375.4c212.6-32.6,388.9-67,392.7-74.7c30.7-80.4,224.1-327.6,344.8-444.4c524.9-501.9,1264.3-595.7,1900.2-239.4c180.1,101.5,496.1,409.9,593.8,580.4l67.1,118.8l220.3,32.6c120.7,19.2,662.8,109.2,1204.9,201.1c1080.3,185.8,1063.1,182,1063.1,314.1c0,53.7-21.1,90-113,191.6c-467.4,519.1-718.3,925.2-886.9,1434.7C7801.8-1200.9,7777-953.8,7777,220.5c0,530.6-7.7,953.9-21.1,1042.1c-126.5,906.1-821.8,1681.9-1752.7,1952c-92,24.9-168.6,49.8-170.5,51.7c-1.9,3.8-13.4,80.4-24.9,172.4c-26.8,214.5-93.9,358.2-233.7,496.1C5361.4,4149.3,5076,4227.8,4788.7,4151.2z M5236.9,3791.1c141.7-82.4,222.2-201.1,249-367.8l13.4-78.5l-360.1,9.6c-197.3,3.8-419.5,0-490.4-9.6c-70.9-9.6-134.1-11.5-139.8-1.9c-5.7,7.7,0,63.2,11.5,118.8c34.5,168.6,157.1,306.5,323.7,369.7C4949.6,3869.6,5133.5,3852.4,5236.9,3791.1z M5282.9,2532.5c344.8-36.4,714.5-151.3,816.1-250.9c44-46,51.7-65.1,42.1-116.8c-13.4-70.9-92-147.5-149.4-147.5c-23,0-95.8,23-162.8,49.8c-586.2,233.7-1310.2,189.6-1821.7-109.2c-59.4-36.4-178.1-134.1-262.4-218.4c-237.5-237.5-337.1-438.7-371.6-741.3c-15.3-136-24.9-164.7-69-201.1c-67-57.5-151.3-57.5-210.7,3.8c-40.2,38.3-47.9,63.2-47.9,166.7c1.9,620.6,513.4,1231.7,1216.4,1457.7C4623.9,2540.2,4924.7,2572.8,5282.9,2532.5z M4654.6-3976.5c337.1-13.4,932.9,0,1252.8,26.8l172.4,15.3l-61.3-74.7c-101.5-122.6-272-254.8-434.8-333.3c-530.6-256.7-1143.6-124.5-1544,333.3l-65.1,74.7l172.4-13.4C4242.8-3957.4,4470.7-3968.9,4654.6-3976.5z"/><path d="M603.2,812.4c-136-141.7-214.5-258.6-318-471.2C-21.3-292.9,57.3-1062.9,486.3-1618.5c178.2-231.8,287.3-285.4,385-185.8c76.6,74.7,65.1,160.9-36.4,275.8c-174.3,195.4-300.7,427.2-367.8,672.4c-53.6,191.6-49.8,593.8,7.7,793c59.4,210.7,191.6,455.9,329.5,613C900.1,661,919.3,695.5,919.3,753c0,91.9-63.2,153.2-157.1,153.2C704.7,906.2,677.9,890.9,603.2,812.4z"/><path d="M9121.7,862.2c-76.6-80.5-57.5-160.9,72.8-312.2c515.3-593.8,503.8-1476.9-24.9-2072.6c-74.7-84.3-90-113-90-176.2c0-86.2,67-153.2,155.1-153.2c151.3,0,461.6,438.7,580.4,816c139.8,450.2,105.4,940.6-92,1360C9621.6,538.4,9546.9,649.5,9409,797c-91.9,93.9-114.9,109.2-176.2,109.2C9184.9,906.2,9150.4,892.8,9121.7,862.2z"/><path d="M1304.3,500.1c-114.9-118.8-241.4-327.6-300.7-503.8c-69-205-86.2-553.6-36.4-762.4c63.2-268.2,281.6-634.1,419.5-699.2c103.4-49.8,222.2,23,222.2,136c0,47.9-23,93.9-95.8,185.8c-182,224.1-249,415.7-250.9,699.2c0,275.8,80.5,490.4,264.4,704.9c97.7,116.8,111.1,208.8,38.3,277.8C1490.1,609.3,1398.2,595.9,1304.3,500.1z"/><path d="M8432.1,536.5c-67-70.9-55.6-164.7,30.6-264.4c187.7-212.6,272-434.8,272-710.7c0-291.2-65.1-478.9-249-704.9c-126.4-159-130.3-258.6-15.3-318c93.9-47.9,157.1-19.2,275.8,122.6c438.7,532.5,417.6,1344.7-49.8,1835.1c-67,70.9-92,84.3-151.3,84.3C8495.3,580.6,8460.8,567.2,8432.1,536.5z"/></g></g>
</svg>