<?xml version="1.0" encoding="utf-8"?>
<!-- Svg Vector Icons : http://www.onlinewebfonts.com/icon -->
<!DOCTYPE svg PUBLIC "-//W3C//DTD SVG 1.1//EN" "http://www.w3.org/Graphics/SVG/1.1/DTD/svg11.dtd">
<svg version="1.1" xmlns="http://www.w3.org/2000/svg" xmlns:xlink="http://www.w3.org/1999/xlink" x="0px" y="0px" viewBox="0 0 1000 1000" enable-background="new 0 0 1000 1000" xml:space="preserve">
<metadata> Svg Vector Icons : http://www.onlinewebfonts.com/icon </metadata>
<g><g transform="translate(0.000000,511.000000) scale(0.100000,-0.100000)"><path d="M180,4795.2l-80-73.5V110v-4611.6l80-73.5l82.2-73.6h4737.1h4734.9l75.7,64.9c127.6,114.6,119,305-21.6,400.2c-58.4,41.1-110.3,43.3-759.2,49.7l-698.7,6.5v419.6v421.8l-60.6,67.1c-45.4,49.8-80,67.1-138.4,69.2c-90.8,2.2-183.9-51.9-212-127.6c-13-30.3-21.6-233.6-21.6-454.2v-398H6556.7H5215.6v478v478l-62.7,62.7c-49.7,49.8-82.2,62.7-153.6,62.7c-71.4,0-103.8-13-153.6-62.7l-62.7-62.7v-478v-478H3658.2H2533.4v421.8v421.8l-60.6,67.1c-45.4,49.8-80,67.1-138.4,69.2c-90.8,2.2-183.9-51.9-212-127.6c-13-30.3-21.6-233.6-21.6-454.2v-398h-746.2H608.3V296v4425.6l-73.5,73.5c-62.7,62.7-88.7,73.5-173,73.5S249.2,4855.7,180,4795.2z"/><path d="M7841.6,3986.2c-430.5-153.6-651.1-640.3-478-1064.2c54.1-131.9,56.3-140.6,19.5-181.7C6913.6,2201.7,5371.3,531.8,5345.4,536.1c-17.3,2.2-90.9,19.5-162.2,38.9C4767.9,685.4,4322.3,417.2,4212-9c-19.5-69.2-41.1-134.1-49.8-140.6c-19.5-17.3-1131.3-160.1-1137.8-149.3C2821.1,38.6,2594,181.4,2263,181.4c-324.5,0-586.2-162.2-729-456.4c-64.9-132-71.4-160.1-71.4-350.4c0-177.4,8.7-222.8,58.4-328.8c73.5-160,244.4-328.8,402.3-402.3c177.4-80,441.3-93,616.5-26c240.1,90.8,436.9,294.2,504,521.3c34.6,116.8,43.3,125.5,114.6,136.3c454.2,69.2,1116.1,142.8,1122.6,125.5c17.3-56.3,155.7-207.7,248.8-272.6c225-160,568.9-190.3,819.8-69.2C5698-776.8,5884-385.3,5791-19.8c-19.5,77.9-51.9,162.2-69.2,190.3c-30.3,47.6-30.3,56.2,8.6,97.3c21.6,26,478,529.9,1010.1,1118.3c534.3,588.4,977.7,1079.4,986.3,1090.2c8.7,8.7,64.9,2.2,125.5-19.5c114.6-36.8,333.1-47.6,458.6-21.6c220.6,45.4,452.1,240.1,555.9,465.1c47.6,101.7,56.3,149.2,56.3,324.5s-8.7,222.8-56.3,324.5c-80,175.2-212,311.5-380.7,393.7c-125.4,62.7-168.7,71.4-339.6,77.9C8001.6,4025.1,7923.7,4016.5,7841.6,3986.2z"/><path d="M7999.5,2335.8c-73.6-43.3-101.7-138.4-101.7-343.9c0-281.2,54.1-367.7,227.1-367.7c58.4,0,95.2,17.3,142.8,62.7c62.7,62.7,62.7,67.1,62.7,300.7c0,225-2.2,242.3-56.2,305c-45.4,56.2-71.4,67.1-144.9,67.1C8079.5,2359.6,8021.1,2348.8,7999.5,2335.8z"/><path d="M8027.6,979.6c-123.3-60.6-129.8-86.5-129.8-703c0-592.7,8.7-655.4,106-707.3c84.3-43.3,196.8-26,263.9,41.1l62.7,62.7v597v597l-58.4,62.7C8194.1,1012,8120.6,1027.1,8027.6,979.6z"/><path d="M8027.6-1097c-123.3-60.6-129.8-86.5-129.8-703c0-592.7,8.7-655.4,106-707.3c84.3-43.3,196.8-26,263.9,41.1l62.7,62.7v597v597l-58.4,62.7C8194.1-1064.5,8120.6-1049.4,8027.6-1097z"/><path d="M4845.7-1207.3L4783-1270v-512.6v-512.6l62.7-62.7c88.7-88.7,218.5-88.7,307.1,0l62.7,62.7v512.6v512.6l-62.7,62.7c-49.7,49.8-82.2,62.7-153.6,62.7C4927.9-1144.6,4895.5-1157.5,4845.7-1207.3z"/><path d="M2239.3-1663.7c-26-8.7-67.1-45.4-93-77.9c-41.1-51.9-45.4-84.4-45.4-337.5c0-372,38.9-449.9,227.1-449.9c58.4,0,95.2,17.3,142.8,62.7l62.7,62.7v294.2c0,320.1-17.3,387.2-110.3,436.9C2356.1-1637.7,2306.3-1635.6,2239.3-1663.7z"/></g></g>
</svg>