<?xml version="1.0" encoding="utf-8"?>
<!-- Svg Vector Icons : http://www.onlinewebfonts.com/icon -->
<!DOCTYPE svg PUBLIC "-//W3C//DTD SVG 1.1//EN" "http://www.w3.org/Graphics/SVG/1.1/DTD/svg11.dtd">
<svg version="1.1" xmlns="http://www.w3.org/2000/svg" xmlns:xlink="http://www.w3.org/1999/xlink" x="0px" y="0px" viewBox="0 0 1000 1000" enable-background="new 0 0 1000 1000" xml:space="preserve">
<metadata> Svg Vector Icons : http://www.onlinewebfonts.com/icon </metadata>
<g><g transform="translate(0.000000,512.000000) scale(0.100000,-0.100000)"><path d="M7057,5071.3c-31-7.8-83.4-29.1-116.4-46.6c-31-15.5-622.9-595.8-1315.7-1288.6L4369.3,2478.7l287.2-287.2l285.3-285.3l262,262c143.6,143.6,267.8,262,275.6,262c9.7,0,15.5-446.3,15.5-989.7c0-850,3.9-1001.3,29.1-1063.4c38.8-91.2,97-151.4,194.1-203.8c77.6-42.7,89.3-42.7,1356.5-48.5c910.1-3.9,1311.8,1.9,1387.5,17.5c151.4,31,277.5,157.2,310.5,304.7c13.6,67.9,21.3,421.1,21.3,1047.9v945.1l267.8-267.8l265.9-265.9l287.2,287.2l285.3,285.3L8613.4,3763.3L7328.7,5046.1l-102.9,21.3c-56.3,11.6-104.8,21.3-106.7,19.4C7117.2,5084.9,7090,5079.1,7057,5071.3z M7551.9,1566.6V935.9h-417.2h-417.2v630.7v630.7h417.2h417.2V1566.6z"/><path d="M100-1121.1v-3725.9h3725.9h3725.9v1655.3v1655.3h-407.5h-407.5v-1247.8V-4032H3825.9H915v2910.9v2910.9h1247.8h1245.9l1.9,407.5v407.5H1755.3H100V-1121.1z"/><path d="M1768.9,120.8v-815.1h815h815v815.1v815.1h-815h-815V120.8z"/><path d="M4252.9-438v-256.2H4509h256.2l-139.7,126.1c-75.7,69.9-190.2,186.3-256.2,258.1l-116.4,130V-438z"/><path d="M1768.9-2363.1v-815.1h815h815v815.1v815h-815h-815V-2363.1z"/><path d="M4252.9-2363.1v-815.1h815h815v815.1v815h-815h-815V-2363.1z"/></g></g>
</svg>