<?xml version="1.0" encoding="utf-8"?>
<!-- Svg Vector Icons : http://www.onlinewebfonts.com/icon -->
<!DOCTYPE svg PUBLIC "-//W3C//DTD SVG 1.1//EN" "http://www.w3.org/Graphics/SVG/1.1/DTD/svg11.dtd">
<svg version="1.1" xmlns="http://www.w3.org/2000/svg" xmlns:xlink="http://www.w3.org/1999/xlink" x="0px" y="0px" viewBox="0 0 1000 1000" enable-background="new 0 0 1000 1000" xml:space="preserve">
<metadata> Svg Vector Icons : http://www.onlinewebfonts.com/icon </metadata>
<g><g transform="translate(0.000000,512.000000) scale(0.100000,-0.100000)"><path d="M1522.5,4970.2c-109.2-53.6-185.8-139.8-226-250.9c-21.1-59.4-24.9-752.8-26.8-3896.2c0-4292.7-13.4-3932.6,145.6-4078.1c46-42.1,107.3-86.2,134.1-95.8c26.8-11.5,151.3-19.2,277.8-19.2H2055v143.7v143.7h-197.3c-147.5,0-206.9,7.7-239.4,30.6l-42.1,28.7V815.4c0,3463.3,3.8,3840.6,30.6,3867.4c26.8,26.8,362,30.7,3398.1,30.7s3371.3-3.8,3398.1-30.7c26.8-26.8,30.6-398.4,30.6-3800.4c0-3401.9-3.8-3773.6-30.6-3800.4c-15.4-17.2-46-30.6-67.1-30.6c-19.2,0-1270-339-2779.4-754.7c-1509.4-413.8-2767.9-758.5-2796.7-766.2c-34.5-7.7-61.3-1.9-80.4,19.1c-26.8,26.8-30.6,383.1-30.6,3647.2v3618.4l42.1,28.7c23,17.2,57.5,30.7,74.7,30.7c17.2,0,327.6,72.8,689.6,160.9c1515.2,373.5,4242.9,1045.9,4264,1053.5c15.3,7.7,11.5,46-13.4,145.6c-19.2,76.6-38.3,141.7-42.1,145.6c-7.7,7.7-4819.4-1172.3-5007.2-1227.9c-139.8-40.2-264.3-176.2-293.1-318c-17.2-76.6-21.1-1021-17.2-3704.6l5.7-3601.2l53.6-91.9c59.4-99.6,189.6-197.3,289.2-216.4c44.1-7.7,816,197.3,2846.5,754.7c1532.4,421.4,2813.9,772,2846.5,779.6c103.5,21.1,229.9,114.9,289.3,214.5l53.6,92V884.4v3823.4l-57.5,93.9c-36.4,57.5-93.9,114.9-151.3,151.3l-93.8,57.5l-3403.9,5.7l-3402,3.8L1522.5,4970.2z"/><path d="M3539.6-328.1c-86.2-30.6-212.6-122.6-268.2-195.4c-159-208.8-130.3-471.2,72.8-658.9c113-103.5,206.9-141.8,348.6-145.6c270.1-3.8,526.8,247.1,526.8,517.2C4219.6-491,3840.3-220.9,3539.6-328.1z M3857.5-667.2c103.4-103.4,63.2-302.7-69-346.7c-159-51.7-316.1,40.2-316.1,187.7c0,145.6,74.7,214.6,235.6,214.6C3784.7-611.6,3809.6-621.2,3857.5-667.2z"/></g></g>
</svg>