<?xml version="1.0" encoding="utf-8"?>
<!-- Svg Vector Icons : http://www.onlinewebfonts.com/icon -->
<!DOCTYPE svg PUBLIC "-//W3C//DTD SVG 1.1//EN" "http://www.w3.org/Graphics/SVG/1.1/DTD/svg11.dtd">
<svg version="1.1" xmlns="http://www.w3.org/2000/svg" xmlns:xlink="http://www.w3.org/1999/xlink" x="0px" y="0px" viewBox="0 0 1000 1000" enable-background="new 0 0 1000 1000" xml:space="preserve">
<metadata> Svg Vector Icons : http://www.onlinewebfonts.com/icon </metadata>
<g><g transform="translate(0.000000,512.000000) scale(0.100000,-0.100000)"><path d="M1791.2,4974c-103.4-47.9-191.6-136-233.7-235.6c-21.1-51.7-24.9-751-24.9-4067.1v-4003.9h153.3H1839V659.8c0,3605.4,3.8,3996.2,30.7,4023c26.8,26.8,337.2,30.7,3130.3,30.7c2793.1,0,3103.5-3.8,3130.3-30.7c26.8-26.8,30.6-467.4,30.6-4563.3c0-2825.7-7.7-4546-19.2-4563.3c-15.3-24.9-333.3-28.7-2724.2-21.1c-1488.5,3.8-2883.2,13.4-3099.7,19.2c-383.1,11.5-392.7,13.4-411.9,55.5c-17.2,38.3-30.7,42.1-166.7,42.1c-130.3,0-149.4-3.8-149.4-32.6c1.9-59.4,69-185.8,136-252.9c134.1-136-130.3-124.5,3293.1-139.8c3053.7-11.5,3095.8-11.5,3180.1,24.9c114.9,51.7,168.6,103.4,222.2,218.4l46,95.8v4569v4569l-40.2,67.1c-65.1,107.3-116.9,155.2-218.4,203.1l-95.8,46H5000H1886.9L1791.2,4974z"/><path d="M2691.5,360.9C2540.2,307.3,2392.7,156,2341,2.7c-74.7-216.5,46-469.4,281.6-590c164.8-86.2,293.1-86.2,457.9-3.8c197.3,97.7,298.9,254.8,298.9,457.9c0,203.1-101.5,360.1-298.9,457.9C2954,387.8,2806.5,401.2,2691.5,360.9z M3011.5,21.8c55.6-49.8,63.2-67,63.2-155.2c0-88.1-7.7-105.4-63.2-155.2c-47.9-44.1-80.5-55.6-147.5-55.6c-155.2,0-239.5,74.7-239.5,214.6c1.9,134.1,84.3,205,233.7,206.9C2932.9,77.4,2961.7,67.8,3011.5,21.8z"/></g></g>
</svg>