<?xml version="1.0" encoding="utf-8"?>
<!-- Svg Vector Icons : http://www.onlinewebfonts.com/icon -->
<!DOCTYPE svg PUBLIC "-//W3C//DTD SVG 1.1//EN" "http://www.w3.org/Graphics/SVG/1.1/DTD/svg11.dtd">
<svg version="1.1" xmlns="http://www.w3.org/2000/svg" xmlns:xlink="http://www.w3.org/1999/xlink" x="0px" y="0px" viewBox="0 0 1000 1000" enable-background="new 0 0 1000 1000" xml:space="preserve">
<metadata> Svg Vector Icons : http://www.onlinewebfonts.com/icon </metadata>
<g><g transform="translate(0.000000,511.000000) scale(0.100000,-0.100000)"><path d="M4796.5,4989.3c-100.8-44.6-4574.7-4346-4638.7-4458.4c-83.4-145.4-75.6-352.8,17.4-504L215.9-39L322.5,67.6c93,95,104.7,112.4,85.3,147.3c-52.3,96.9-34.9,122.1,333.4,480.7c1006.1,982.8,4187,4032,4220,4047.5c23.3,9.7,54.3,9.7,77.5,0c29.1-13.6,4047.5-3871.1,4473.9-4293.7c104.7-104.7,122.1-155.1,79.5-234.6c-19.4-34.9-7.8-52.3,85.3-147.3L9784.1-39l40.7,65.9c93,151.2,100.8,358.6,17.4,504c-64,112.4-4537.9,4413.8-4638.7,4458.4C5100.8,5037.8,4899.2,5037.8,4796.5,4989.3z"/><path d="M7142,4626.8c-176.4-91.1-203.5-166.7-203.5-573.8v-325.7h155.1h155.1v310.2v310.2h630h630v-969.2v-969.2h155.1h157l-5.8,1004.1c-5.8,1118.5,0,1070-145.4,1180.5l-69.8,54.3l-699.8,5.8C7293.2,4657.8,7192.4,4653.9,7142,4626.8z"/><path d="M8644.3,65.7c0-143.5,3.9-157,38.8-157c21.3,0,56.2-17.4,77.5-38.8c38.8-38.8,38.8-64,38.8-2157.5c0-2029.6-1.9-2122.6-34.9-2151.7c-32.9-29.1-135.7-33-1085.5-33H6628.3v-155.1v-155.1h1052.6h1052.6l100.8,50.4c110.5,54.3,186.1,133.8,238.4,250.1c34.9,73.7,36.8,188,36.8,2200.1c0,2014.1-1.9,2126.5-36.8,2200.1c-62,139.6-211.3,255.9-364.4,290.8l-64,13.6V65.7z"/><path d="M3918.3-1370.7c-104.7-25.2-211.3-143.4-236.5-259.7c-15.5-67.8-19.4-538.9-15.5-1513.9c5.8-1304.6,7.8-1420.9,38.8-1477.1c40.7-73.7,139.6-153.1,213.2-170.6l54.3-13.6l3.9,1566.3l5.8,1568.2l936.3,5.8l934.3,3.9v-1572.1v-1572.1l54.3,13.6c75.6,17.5,129.9,56.2,191.9,139.6l54.3,69.8l5.8,1473.2c3.9,1471.3,3.9,1473.2-36.8,1558.5c-25.2,52.3-71.7,106.6-120.2,137.6l-79.5,52.3l-969.2,3.9C4418.5-1355.2,3953.2-1361,3918.3-1370.7z"/><path d="M875-3274.3c5.8-1143.7,5.8-1149.5,48.5-1229c56.2-104.7,195.8-226.8,292.7-255.9c54.3-17.5,376.1-23.3,1116.5-23.3h1039v155.1v155.1H2315.3c-1031.3,0-1056.5,0-1095.2,38.8s-38.8,64-38.8,1172.8v1134h-155.1h-157L875-3274.3z"/></g></g>
</svg>