<?xml version="1.0" encoding="utf-8"?>
<!-- Svg Vector Icons : http://www.onlinewebfonts.com/icon -->
<!DOCTYPE svg PUBLIC "-//W3C//DTD SVG 1.1//EN" "http://www.w3.org/Graphics/SVG/1.1/DTD/svg11.dtd">
<svg version="1.1" xmlns="http://www.w3.org/2000/svg" xmlns:xlink="http://www.w3.org/1999/xlink" x="0px" y="0px" viewBox="0 0 1000 1000" enable-background="new 0 0 1000 1000" xml:space="preserve">
<metadata> Svg Vector Icons : http://www.onlinewebfonts.com/icon </metadata>
<g><g transform="translate(0.000000,512.000000) scale(0.100000,-0.100000)"><path d="M4820.6,4814.7c-429.8-544.9-1028.5-1373.8-1454.4-2012.8C2368.4,1301.4,1804.3,202,1570.2-709.4c-51.8-195.7-55.6-234.1-55.6-602.5c0-335.8,5.8-426,44.1-612.1c49.9-243.7,190-692.7,216.8-692.7c15.3,0,249.4,92.1,261,103.6c3.8,1.9-25,86.3-59.5,186.1c-124.7,349.2-197.6,819.3-178.4,1149.4c53.7,896.1,807.8,2394.6,2212.3,4399.7c274.4,389.5,969,1318.2,986.2,1318.2c7.7,0,172.7-213,368.4-473.9C6516.8,2525.6,7357.2,1178.6,7817.7,134.8c308.9-696.5,416.4-1195.4,366.5-1696.2c-76.8-759.8-372.2-1410.3-884.6-1943.7c-449-470.1-999.7-773.3-1663.6-915.3c-270.5-59.5-802-72.9-1095.6-30.7c-180.4,26.8-445.2,90.2-560.3,134.3c-21.1,9.6-42.2-23-80.6-130.5l-51.8-143.9l134.3-40.3c861.5-261,1786.4-176.5,2594.2,239.8c1189.6,612.1,1953.3,1884.2,1907.3,3179.4c-11.5,345.4-38.4,475.8-178.4,894.1c-314.7,938.3-1020.8,2198.9-2083.8,3712.8C5776.1,4031.8,5031.6,5020,4997.1,5020C4991.3,5020,4910.7,4927.9,4820.6,4814.7z"/><path d="M2420.2-1421.3c23-345.4,105.5-662,245.6-955.5c404.9-842.4,1224.2-1410.3,2135.6-1479.4l176.5-13.4v157.3v155.4h-122.8c-356.9,0-828.9,157.3-1172.4,389.5c-287.8,195.7-614,583.3-756,898c-117,261-213,660.1-213,896.1v80.6h-151.6h-151.6L2420.2-1421.3z"/></g></g>
</svg>