<?xml version="1.0" encoding="utf-8"?>
<!-- Svg Vector Icons : http://www.onlinewebfonts.com/icon -->
<!DOCTYPE svg PUBLIC "-//W3C//DTD SVG 1.1//EN" "http://www.w3.org/Graphics/SVG/1.1/DTD/svg11.dtd">
<svg version="1.1" xmlns="http://www.w3.org/2000/svg" xmlns:xlink="http://www.w3.org/1999/xlink" x="0px" y="0px" viewBox="0 0 1000 1000" enable-background="new 0 0 1000 1000" xml:space="preserve">
<metadata> Svg Vector Icons : http://www.onlinewebfonts.com/icon </metadata>
<g><path d="M500,144.2c7.9,0,14.3-6.4,14.3-14.3V15.7c0-7.9-6.4-14.3-14.3-14.3c-7.9,0-14.3,6.4-14.3,14.3v114.2C485.7,137.8,492.1,144.2,500,144.2z"/><path d="M306.9,185.5c2.6,4.6,7.4,7.1,12.4,7.1c2.4,0,4.9-0.6,7.1-1.9c6.8-3.9,9.2-12.7,5.2-19.5l-57.1-98.9c-3.9-6.8-12.7-9.2-19.5-5.2c-6.8,3.9-9.2,12.7-5.2,19.5L306.9,185.5z"/><path d="M80.9,265.9l98.9,57.1c2.2,1.3,4.7,1.9,7.1,1.9c4.9,0,9.7-2.6,12.4-7.1c3.9-6.8,1.6-15.6-5.2-19.5l-98.9-57.1c-6.8-3.9-15.6-1.6-19.5,5.2C71.7,253.3,74,262,80.9,265.9z"/><path d="M919.1,716.9l-98.9-57.1c-6.8-3.9-15.6-1.6-19.5,5.2c-3.9,6.8-1.6,15.6,5.2,19.5l98.9,57.1c2.3,1.3,4.7,1.9,7.1,1.9c4.9,0,9.7-2.6,12.4-7.1C928.3,729.6,926,720.9,919.1,716.9z"/><path d="M152.8,491.4c0-7.9-6.4-14.3-14.3-14.3H24.3c-7.9,0-14.3,6.4-14.3,14.3c0,7.9,6.4,14.3,14.3,14.3h114.2C146.4,505.7,152.8,499.3,152.8,491.4z"/><path d="M975.7,477.1H861.5c-7.9,0-14.3,6.4-14.3,14.3c0,7.9,6.4,14.3,14.3,14.3h114.2c7.9,0,14.3-6.4,14.3-14.3C990,483.5,983.6,477.1,975.7,477.1z"/><path d="M813.1,324.9c2.4,0,4.9-0.6,7.1-1.9l98.9-57.1c6.8-3.9,9.2-12.7,5.2-19.5c-3.9-6.8-12.7-9.2-19.5-5.2L806,298.3c-6.8,3.9-9.2,12.7-5.2,19.5C803.4,322.4,808.2,324.9,813.1,324.9z"/><path d="M179.7,659.8l-98.9,57.1c-6.8,3.9-9.2,12.7-5.2,19.5c2.6,4.6,7.4,7.1,12.4,7.1c2.4,0,4.9-0.6,7.1-1.9l98.9-57.1c6.8-3.9,9.2-12.7,5.2-19.5C195.3,658.2,186.6,655.9,179.7,659.8z"/><path d="M673.6,190.7c2.3,1.3,4.7,1.9,7.1,1.9c4.9,0,9.7-2.6,12.4-7.1l57.1-98.9c3.9-6.8,1.6-15.6-5.2-19.5s-15.6-1.6-19.5,5.2l-57.1,98.9C664.5,178,666.8,186.7,673.6,190.7z"/><path d="M731.3,260.1c-61.8-61.8-144-95.8-231.3-95.8c-87.4,0-169.6,34-231.3,95.8c-61.8,61.8-95.8,144-95.8,231.3c0,58.6,15.7,116.1,45.3,166.2c27.4,46.3,65.9,85.3,111.8,113.3v137.8h49.3C395,961.4,444,998.6,500,998.6c56,0,105-37.1,120.8-89.8h49.3V770.9c45.9-28,84.4-67,111.8-113.3c29.7-50.2,45.3-107.7,45.3-166.2C827.2,404,793.1,321.9,731.3,260.1z M597.9,880.2l-2.3,11.5c-9,45.4-49.2,78.4-95.6,78.4c-46.4,0-86.6-33-95.6-78.4l-2.3-11.5h-43.6v-93.7c43.9,21.1,92.4,32.1,141.5,32.1s97.6-11.1,141.5-32.1v93.7H597.9z M648.7,750.4L648.7,750.4c-45,25.9-96.4,39.6-148.7,39.6c-52.3,0-103.7-13.7-148.7-39.6c-92.5-53.2-149.9-152.5-149.9-259c0-164.6,134-298.6,298.6-298.6c164.6,0,298.6,134,298.6,298.6C798.6,598,741.2,697.2,648.7,750.4z"/><path d="M574.7,451.9c-27.9,0-54.4,10.4-74.7,28.9c-20.3-18.5-46.8-28.9-74.7-28.9c-36,0-69.9,17.6-90.7,47.1c-4.5,6.4-3,15.4,3.4,19.9c2.5,1.8,5.4,2.6,8.2,2.6c4.5,0,8.9-2.1,11.7-6.1c15.4-21.9,40.6-35,67.4-35c24.7,0,48,11,63.7,30.1c0.1,0.1,0.2,0.2,0.3,0.3c0.2,0.2,0.4,0.5,0.7,0.7c0.3,0.3,0.5,0.5,0.8,0.7c0.1,0.1,0.2,0.1,0.2,0.2c0,0,0,0,0,0c0.4,0.3,0.7,0.6,1.1,0.8c0,0,0,0,0,0c0.4,0.2,0.7,0.5,1.1,0.7c0,0,0.1,0.1,0.1,0.1c0.2,0.1,0.4,0.2,0.7,0.3c1.8,0.9,3.8,1.3,5.8,1.3c0.1,0,0.1,0,0.2,0c0.3,0,0.6,0,0.9,0c0.2,0,0.4,0,0.5,0c0.2,0,0.4-0.1,0.5-0.1c0.3,0,0.6-0.1,0.8-0.1c0.1,0,0.2,0,0.2-0.1c0.8-0.2,1.6-0.4,2.4-0.7c1.3-0.5,2.5-1.3,3.7-2.2c0,0,0,0,0,0c0.1-0.1,0.1-0.1,0.2-0.2c0.3-0.2,0.6-0.5,0.8-0.8c0.2-0.2,0.4-0.5,0.7-0.7c0.1-0.1,0.2-0.2,0.3-0.3c15.7-19.1,38.9-30.1,63.7-30.1c26.7,0,51.9,13.1,67.4,35c2.8,3.9,7.2,6.1,11.7,6.1c2.8,0,5.7-0.8,8.2-2.6c6.4-4.5,8-13.5,3.4-19.9C644.6,469.5,610.7,451.9,574.7,451.9z"/></g>
</svg>