<?xml version="1.0" encoding="utf-8"?>
<!-- Svg Vector Icons : http://www.onlinewebfonts.com/icon -->
<!DOCTYPE svg PUBLIC "-//W3C//DTD SVG 1.1//EN" "http://www.w3.org/Graphics/SVG/1.1/DTD/svg11.dtd">
<svg version="1.1" xmlns="http://www.w3.org/2000/svg" xmlns:xlink="http://www.w3.org/1999/xlink" x="0px" y="0px" viewBox="0 0 1000 1000" enable-background="new 0 0 1000 1000" xml:space="preserve">
<metadata> Svg Vector Icons : http://www.onlinewebfonts.com/icon </metadata>
<g><path d="M900.9,923.2c0,36.9-29.9,66.8-66.8,66.8H165.9c-36.9,0-66.8-29.9-66.8-66.8V522.3c0-36.9,29.9-66.8,66.8-66.8h22.3V321.8C188.2,150.6,328.8,10,500,10s311.8,140.6,311.8,311.8v133.6h22.3c36.9,0,66.8,29.9,66.8,66.8L900.9,923.2L900.9,923.2z M678.2,455.5V321.8c0-98.1-80-178.2-178.2-178.2c-98.1,0-178.2,80-178.2,178.2v133.6H678.2z"/></g>
</svg>