<?xml version="1.0" encoding="utf-8"?>
<!-- Svg Vector Icons : http://www.onlinewebfonts.com/icon -->
<!DOCTYPE svg PUBLIC "-//W3C//DTD SVG 1.1//EN" "http://www.w3.org/Graphics/SVG/1.1/DTD/svg11.dtd">
<svg version="1.1" xmlns="http://www.w3.org/2000/svg" xmlns:xlink="http://www.w3.org/1999/xlink" x="0px" y="0px" viewBox="0 0 1000 1000" enable-background="new 0 0 1000 1000" xml:space="preserve">
<metadata> Svg Vector Icons : http://www.onlinewebfonts.com/icon </metadata>
<g><g transform="translate(0.000000,511.000000) scale(0.100000,-0.100000)"><path d="M4495.2,4998.5c-483-46-618.7-62.1-848.7-101.2c-478.4-82.8-1037.3-239.2-1550.1-434.7c-112.7-41.4-140.3-64.4-167.9-131.1c-41.4-96.6-6.9-186.3,92-232.3c59.8-29.9,87.4-23,356.5,73.6c1699.6,623.3,3541.9,627.9,5211.6,13.8c322-117.3,388.7-124.2,455.4-50.6c43.7,48.3,52.9,112.7,32.2,195.5c-20.7,75.9-82.8,105.8-533.6,259.9c-586.5,202.4-1271.8,345-1931.9,400.2C5355.4,5012.3,4683.8,5016.9,4495.2,4998.5z"/><path d="M4529.7,4264.8c-593.4-46-1177.6-158.7-1736.4-335.8c-232.3-71.3-322-138-322-236.9c0-73.6,89.7-172.5,161-177.1c32.2-2.3,161,29.9,287.5,69c694.6,213.9,1402.9,326.6,2081.4,326.6c678.5,0,1478.9-128.8,2104.4-335.8c232.3-75.9,305.9-75.9,374.9,2.3c121.9,144.9,36.8,255.3-271.4,354.2c-439.3,138-862.5,230-1322.5,289.8C5622.1,4257.9,4771.2,4283.2,4529.7,4264.8z"/><path d="M4426.2,3519.6c-485.3-48.3-1179.9-195.5-1288-273.7c-46-32.2-57.5-62.1-57.5-140.3c0-80.5,11.5-108.1,64.4-147.2l62.1-46l305.9,73.6c1032.7,250.7,1968.7,250.7,2964.6,2.3c147.2-36.8,285.1-66.7,305.8-66.7c20.7,0,62.1,25.3,92,57.5c78.2,75.9,78.2,197.8,0,259.9c-73.6,57.5-547.4,174.8-959,236.9C5562.3,3528.8,4771.2,3551.8,4426.2,3519.6z"/><path d="M1930.8,2381.2c-57.5-55.2-57.5-59.8-57.5-494.5v-437h1000.5h1000.5v437c0,434.7,0,439.3-57.5,494.5l-55.2,57.5h-887.8H1986L1930.8,2381.2z"/><path d="M6185.6,2381.2c-57.5-55.2-57.5-59.8-57.5-494.5v-437h1000.5H8129v437c0,434.7,0,439.3-57.5,494.5l-55.2,57.5h-887.8h-887.8L6185.6,2381.2z"/><path d="M1880.2-509.8c9.2-1734.2,4.6-1669.7,147.2-2120.5c243.8-770.5,837.2-1460.4,1570.8-1830.7c448.5-225.4,901.6-331.2,1414.4-328.9c510.6,0,963.7,108.1,1409.9,340.4c798,414,1375.3,1133.9,1603,1994c94.3,363.4,103.5,531.3,103.5,2069.9v1467.3H7128.6H6128.1V-328.1c0-913.1-9.2-1458.2-25.3-1547.9c-96.6-526.7-558.9-908.5-1101.7-908.5c-538.2,0-991.3,368-1101.7,894.7c-16.1,80.5-25.3,595.7-25.3,1545.6v1425.9H2871.4H1871L1880.2-509.8z"/></g></g>
</svg>