<?xml version="1.0" encoding="utf-8"?>
<!-- Svg Vector Icons : http://www.onlinewebfonts.com/icon -->
<!DOCTYPE svg PUBLIC "-//W3C//DTD SVG 1.1//EN" "http://www.w3.org/Graphics/SVG/1.1/DTD/svg11.dtd">
<svg version="1.1" xmlns="http://www.w3.org/2000/svg" xmlns:xlink="http://www.w3.org/1999/xlink" x="0px" y="0px" viewBox="0 0 1000 1000" enable-background="new 0 0 1000 1000" xml:space="preserve">
<metadata> Svg Vector Icons : http://www.onlinewebfonts.com/icon </metadata>
<g><path d="M978.7,978.1c-15.9,15.9-42.6,14.9-59.6-2.2L636.8,693.7c0,2.4,0,4.6,0,7L256.2,320.1h7L23.5,80.3c-17.1-17.1-18-43.7-2.2-59.6s42.6-14.9,59.6,2.2L332.1,274c116.4-112,246.2-236.5,260.7-251.3c19.1-19.5,44.1,2,44.1,46.4c0,25.1,0,281.9,0,509.6l339.7,339.7C993.6,935.6,994.6,962.3,978.7,978.1z M125,320.1h16.3l495.6,495.6c0,67.1,0,112.9,0,119.9c0,40.3-22.6,70.3-45,46.7C580.3,970.1,411.3,808.4,284,685.8H125c-31.5,0-57-25.5-57-57V377.1C67.9,345.6,93.5,320.1,125,320.1z"/></g>
</svg>