<?xml version="1.0" encoding="utf-8"?>
<!-- Svg Vector Icons : http://www.onlinewebfonts.com/icon -->
<!DOCTYPE svg PUBLIC "-//W3C//DTD SVG 1.1//EN" "http://www.w3.org/Graphics/SVG/1.1/DTD/svg11.dtd">
<svg version="1.1" xmlns="http://www.w3.org/2000/svg" xmlns:xlink="http://www.w3.org/1999/xlink" x="0px" y="0px" viewBox="0 0 1000 1000" enable-background="new 0 0 1000 1000" xml:space="preserve">
<metadata> Svg Vector Icons : http://www.onlinewebfonts.com/icon </metadata>
<g><g transform="translate(0.000000,511.000000) scale(0.100000,-0.100000)"><path d="M4909.5,4997.5c-24.1-10.1-62.4-44.3-86.5-74.4l-42.2-54.3V3090.3c0-1931.4-4-1860.9,110.6-1913.3c66.4-30.2,134.8-30.2,201.2,0c114.7,52.3,110.7-18.1,110.7,1915.3v1782.5l-54.3,60.4C5088.6,5001.6,4984,5027.7,4909.5,4997.5z"/><path d="M3760.8,4261.2C2123.2,3800.5,897.9,2527,509.7,881.3C358.8,247.6,354.8-545,497.6-1188.8c100.6-450.6,336-1028,581.4-1420.4c366.2-585.4,913.4-1132.7,1490.8-1490.8c539.2-334,1152.8-557.3,1798.6-653.8c329.9-48.3,937.5-48.3,1267.5,0c1024,152.9,1901.2,591.5,2625.4,1319.8C8953.3-2742,9367.8-1947.3,9552.9-959.5c58.3,315.9,72.4,991.8,26.1,1347.9c-193.1,1531-1170.9,2897-2555,3571c-317.9,154.9-569.3,249.5-871.1,323.9l-225.3,58.3l-76.5-40.2c-98.6-52.3-138.8-160.9-96.6-261.5c38.2-90.5,88.5-118.7,317.9-179c1434.4-376.2,2589.2-1533,2971.5-2971.5C9154.5,475,9174.6,301.9,9174.6-195c-2-509-30.2-718.2-156.9-1156.8c-414.4-1436.5-1601.4-2563.1-3064-2905.1c-597.5-138.8-1305.7-138.8-1903.2,0c-1205.1,281.7-2235.1,1096.4-2788.4,2205c-201.2,402.4-317.9,758.4-398.3,1223.2c-52.3,305.8-48.3,1046.1,10.1,1358c160.9,875.1,547.2,1623.6,1150.8,2233.1c543.2,547.2,1229.2,937.5,1963.6,1114.6c183.1,44.3,255.5,110.7,255.5,233.4c0,66.4-14.1,96.6-58.3,142.8C4098.8,4337.7,4036.4,4339.7,3760.8,4261.2z"/></g></g>
</svg>