<?xml version="1.0" encoding="utf-8"?>
<!-- Svg Vector Icons : http://www.onlinewebfonts.com/icon -->
<!DOCTYPE svg PUBLIC "-//W3C//DTD SVG 1.1//EN" "http://www.w3.org/Graphics/SVG/1.1/DTD/svg11.dtd">
<svg version="1.1" xmlns="http://www.w3.org/2000/svg" xmlns:xlink="http://www.w3.org/1999/xlink" x="0px" y="0px" viewBox="0 0 1000 1000" enable-background="new 0 0 1000 1000" xml:space="preserve">
<metadata> Svg Vector Icons : http://www.onlinewebfonts.com/icon </metadata>
<g><g transform="translate(0.000000,121.000000) scale(0.100000,-0.100000)"><path d="M4643.5,939.6l-211-162.3v-3123.7c0-3010.1,8.1-3123.6,162.3-3277.8c89.3-89.2,267.7-162.3,405.7-162.3c138,0,316.4,73,405.7,162.3c154.1,154.2,162.3,267.7,162.3,3277.8V777.3l-211,162.3c-121.7,97.4-275.9,170.4-357,170.4C4919.3,1110,4765.2,1037,4643.5,939.6z"/><path d="M2404.2-277.4c-494.9-308.3-1200.8-1119.6-1501-1728.1c-916.8-1849.9-576.1-3902.6,884.4-5371.1c657.2-657.2,1614.6-1127.8,2555.7-1265.8c2620.7-381.3,5062.8,1574,5249.4,4227.2c97.4,1249.4-389.4,2588.1-1249.4,3480.6C7531.9-98.9,7037,95.8,6712.4-318c-251.5-316.4-210.9-511.1,170.4-835.7c965.5-827.6,1379.3-1484.8,1533.4-2450.3c227.2-1436-584.2-2969.5-1914.7-3602.4c-2093.3-989.9-4486.8,267.7-4916.8,2588.2c-113.6,616.6,8.1,1363,316.4,2020.2c235.3,494.9,551.7,876.3,1217,1444.2c381.4,324.5,421.9,519.3,170.4,835.7C3085.7-58.3,2793.6-42.1,2404.2-277.4z"/></g></g>
</svg>