<?xml version="1.0" encoding="utf-8"?>
<!-- Svg Vector Icons : http://www.onlinewebfonts.com/icon -->
<!DOCTYPE svg PUBLIC "-//W3C//DTD SVG 1.1//EN" "http://www.w3.org/Graphics/SVG/1.1/DTD/svg11.dtd">
<svg version="1.1" xmlns="http://www.w3.org/2000/svg" xmlns:xlink="http://www.w3.org/1999/xlink" x="0px" y="0px" viewBox="0 0 1000 1000" enable-background="new 0 0 1000 1000" xml:space="preserve">
<metadata> Svg Vector Icons : http://www.onlinewebfonts.com/icon </metadata>
<g><g transform="translate(0.000000,512.000000) scale(0.100000,-0.100000)"><path d="M4682.5,5017.5c-746.2-74.8-1235.3-207.2-1822.3-494.9C1859,4031.6,1086,3256.7,594.9,2257.3C247.7,1549.5,101.9,916.5,100,128.2c-1.9-798,153.5-1463.5,508.3-2175.2c253.2-510.2,539-903.4,949.5-1310.1c402.8-399,753.8-650.2,1264.1-909.2c713.6-358.7,1384.9-516,2196.3-514.1c796,3.8,1415.6,149.6,2138.7,506.4c512.2,253.2,911.1,540.9,1317.8,951.4c402.8,408.6,673.3,784.5,916.9,1283.3c247.5,502.6,379.8,922.6,464.2,1457.8c55.6,364.4,59.5,980.2,7.7,1342.7c-76.7,548.6-232.1,1045.4-479.5,1534.5c-259,510.2-510.2,861.2-909.2,1264.1c-406.7,410.5-799.9,696.3-1310.1,949.5c-669.5,333.8-1313.9,493-2060.1,508.3C4914.6,5021.4,4724.7,5021.4,4682.5,5017.5z M5689.5,4674.2c1952.7-299.2,3468-1759,3834.4-3692.5c88.2-468,99.7-1093.3,30.7-1553.7c-278.1-1839.5-1613.2-3318.4-3404.7-3769.2c-358.7-90.2-606.1-124.7-997.4-138.1c-1064.6-34.5-2067.8,272.4-2906,895.8C1400.5-2956.2,794.4-2052.8,539.3-1041.9C431.9-614.2,405-387.8,405,118.6C405,625,431.9,851.3,539.3,1279C944,2886.5,2229.2,4173.5,3838.5,4578.3c212.9,53.7,466.1,95.9,776.9,132.4C4768.8,4727.9,5497.7,4704.9,5689.5,4674.2z"/><path d="M4634.5,3780.3c-1258.3-130.4-2382.4-922.6-2944.4-2075.4c-209.1-433.5-316.5-822.9-358.7-1317.8c-34.5-404.7-19.2-422,358.7-422h239.8v153.4V272h-153.5c-180.3,0-166.9-26.9-124.7,289.6c84.4,634.9,318.4,1191.2,709.7,1684.1L2490,2405l122.8-120.8l122.8-122.8l109.3,111.3l111.3,109.3l-122.8,122.8l-120.8,122.8l159.2,128.5c493,391.3,1049.2,625.3,1684.1,709.7c316.5,42.2,289.6,55.6,289.6-124.7v-153.5H4999h153.4V3343v155.4l130.4-11.5c717.4-71,1312-308.8,1852.9-738.5l149.6-120.8l-120.8-122.8L7041.8,2382l111.3-109.3l109.3-111.3l122.8,122.8l122.8,120.8l120.8-149.6c429.7-540.9,667.5-1135.5,738.5-1852.9l11.5-130.4h-155.4H8068V118.6V-34.9h239.8c379.8,0,393.2,15.3,356.8,429.7c-80.5,964.8-523.7,1843.4-1248.7,2482.1C6652.4,3548.2,5626.2,3882,4634.5,3780.3z"/><path d="M4928,2550.8c-23-11.5-55.6-55.6-72.9-99.7c-15.3-44.1-266.6-962.9-558.2-2044.8l-529.4-1966.1l11.5-195.7c15.3-331.8,126.6-581.2,366.4-821c155.4-153.4,291.6-239.8,493-312.7c120.8-42.2,170.7-49.9,360.6-47.9c247.4,0,406.6,42.2,610,163c138.1,80.6,360.6,303.1,441.2,441.2c117,197.6,161.1,362.5,165,610l1.9,220.6L5693.4,435.1c-287.7,1066.5-535.2,1971.9-552.4,2016C5102.6,2558.5,5022,2596.8,4928,2550.8z M5346.2,554c186-686.7,335.7-1252.6,331.8-1256.4c-1.9-3.8-49.9,19.2-105.5,51.8c-347.2,193.8-740.4,201.4-1099.1,21.1c-84.4-42.2-155.4-72.9-155.4-71c-7.7,9.6,671.4,2507,680.9,2507C5004.7,1806.5,5160.1,1242.6,5346.2,554z M5238.8-830.9c168.8-44.1,268.5-97.8,391.3-212.9c370.2-341.4,387.5-953.3,38.4-1321.6c-352.9-374-997.4-368.3-1348.5,11.5c-220.6,237.9-295.4,565.9-203.3,897.7c86.3,310.8,333.8,552.5,642.6,627.2C4895.4-796.4,5106.4-796.4,5238.8-830.9z"/><path d="M2012.4-1592.4c-74.8-36.5-92.1-115.1-65.2-297.3c134.3-938,1200.8-1757,2533.9-1945c257-36.5,859.3-30.7,1102.9,9.6c1062.7,176.5,1948.8,728.9,2305.6,1440.5c94,186.1,136.2,312.7,161.1,498.7c26.9,184.1,7.7,259-71,295.4c-32.6,13.4-268.5,21.1-746.2,21.1h-700.1v-153.5v-153.5h604.2H7742v-51.8c-1.9-82.5-117-368.3-201.4-494.9c-99.7-149.6-329.9-391.3-485.3-508.3c-920.7-688.6-2345.9-832.5-3493-352.9c-677.1,283.9-1158.6,765.4-1294.8,1294.8l-24.9,103.6l610,5.8l611.9,3.8v153.5v153.5l-704-1.9C2307.8-1571.3,2039.3-1579,2012.4-1592.4z"/></g></g>
</svg>