<?xml version="1.0" standalone="no"?>
<!DOCTYPE svg PUBLIC "-//W3C//DTD SVG 20010904//EN"
 "http://www.w3.org/TR/2001/REC-SVG-20010904/DTD/svg10.dtd">
<svg version="1.0" xmlns="http://www.w3.org/2000/svg"
 width="340.000000pt" height="292.000000pt" viewBox="0 0 340.000000 292.000000"
 preserveAspectRatio="xMidYMid meet">

<g transform="translate(0.000000,292.000000) scale(0.100000,-0.100000)"
fill="#000000" stroke="none">
<path d="M938 2814 c-61 -33 -58 47 -58 -1344 0 -1369 -2 -1312 49 -1340 33
-17 70 -12 327 46 137 30 400 89 584 130 184 41 347 79 362 85 50 20 63 53 63
163 0 84 -3 100 -18 110 -32 20 -47 -16 -47 -116 0 -82 -2 -89 -22 -98 -26
-11 -1178 -270 -1202 -270 -8 0 -20 9 -26 19 -14 27 -14 2515 0 2542 6 10 20
19 31 19 27 0 1178 -289 1202 -301 15 -9 17 -26 17 -133 0 -101 3 -126 16
-137 11 -9 20 -10 32 -2 14 8 17 31 20 127 3 135 -10 178 -62 202 -25 11
-1223 315 -1237 314 -2 -1 -16 -7 -31 -16z"/>
<path d="M232 2798 c-29 -29 -3 -72 40 -66 19 2 23 9 23 38 0 30 -4 35 -25 38
-14 2 -31 -3 -38 -10z"/>
<path d="M542 2798 c-27 -27 -6 -68 35 -68 16 0 24 7 29 25 11 43 -34 73 -64
43z"/>
<path d="M95 2524 c-20 -20 -16 -53 8 -68 39 -24 79 44 41 71 -23 17 -29 16
-49 -3z"/>
<path d="M387 2522 c-22 -24 -21 -35 2 -56 40 -36 91 15 55 55 -21 24 -36 24
-57 1z"/>
<path d="M686 2527 c-38 -27 2 -95 42 -71 24 16 28 55 6 71 -10 7 -21 13 -24
13 -3 0 -14 -6 -24 -13z"/>
<path d="M230 2282 c-16 -13 -21 -24 -16 -40 13 -38 69 -40 81 -1 13 40 -32
68 -65 41z"/>
<path d="M539 2281 c-21 -16 -22 -22 -11 -45 13 -30 43 -34 67 -10 20 21 16
43 -11 61 -19 12 -24 11 -45 -6z"/>
<path d="M2440 2230 c-16 -16 -20 -33 -20 -90 l0 -70 -464 0 c-302 0 -467 -4
-471 -10 -3 -6 -3 -19 0 -30 6 -20 16 -20 489 -20 551 0 508 -8 516 93 l5 60
150 -119 c83 -66 180 -143 217 -172 l68 -54 -38 -31 c-21 -18 -91 -72 -155
-122 -83 -64 -116 -96 -117 -111 0 -24 26 -39 44 -26 6 5 84 66 174 137 176
139 185 150 135 197 -42 38 -459 365 -482 377 -26 14 -28 14 -51 -9z"/>
<path d="M1194 2055 c-15 -37 2 -45 94 -45 94 0 119 10 106 44 -9 23 -192 24
-200 1z"/>
<path d="M90 2005 c-15 -18 -6 -61 16 -69 24 -9 54 12 54 37 0 43 -44 63 -70
32z"/>
<path d="M386 2001 c-32 -35 13 -83 52 -55 26 18 28 37 6 58 -20 21 -37 20
-58 -3z"/>
<path d="M682 2008 c-34 -34 6 -90 48 -68 35 19 20 80 -20 80 -9 0 -21 -5 -28
-12z"/>
<path d="M2176 1774 c-11 -11 -16 -35 -16 -80 l0 -64 -149 0 c-155 0 -179 -6
-165 -44 5 -14 29 -16 180 -16 167 0 173 1 188 22 9 13 16 43 16 70 l0 48 58
-46 c31 -25 121 -96 200 -157 l143 -112 -33 -27 c-18 -15 -107 -86 -198 -158
l-165 -131 -5 57 c-8 86 -2 84 -296 84 -263 0 -284 -3 -268 -44 5 -14 28 -16
158 -17 83 -1 193 -1 244 1 l92 2 0 -66 c0 -53 4 -70 20 -86 27 -27 31 -26 87
17 109 83 380 298 406 321 49 46 41 59 -129 194 -341 269 -335 265 -368 232z"/>
<path d="M226 1758 c-13 -19 -14 -25 -2 -43 18 -26 40 -30 60 -10 20 21 20 39
0 59 -21 22 -40 20 -58 -6z"/>
<path d="M536 1764 c-21 -21 -20 -37 5 -60 22 -19 43 -13 63 19 8 12 5 21 -8
36 -23 25 -39 26 -60 5z"/>
<path d="M1504 1615 c-3 -8 -3 -22 0 -30 5 -13 26 -15 133 -13 l128 3 0 25 0
25 -128 3 c-107 2 -128 0 -133 -13z"/>
<path d="M2757 1553 c-22 -22 10 -53 220 -219 125 -99 233 -184 241 -189 11
-9 -29 -45 -183 -165 -109 -85 -241 -190 -294 -232 l-96 -77 -5 90 c-4 75 -8
93 -24 105 -30 21 -678 21 -696 -1 -7 -8 -10 -22 -6 -30 5 -13 50 -15 331 -15
l325 0 0 -95 c0 -82 3 -98 20 -115 24 -24 38 -25 71 -2 47 32 628 492 634 503
17 27 -13 61 -162 179 -87 68 -199 157 -249 197 -87 69 -112 82 -127 66z"/>
<path d="M92 1488 c-29 -29 -2 -72 40 -66 42 6 32 78 -11 78 -9 0 -22 -5 -29
-12z"/>
<path d="M380 1481 c-16 -31 4 -63 37 -59 34 4 52 32 37 56 -16 26 -60 28 -74
3z"/>
<path d="M682 1488 c-29 -29 -2 -72 40 -66 42 6 32 78 -11 78 -9 0 -22 -5 -29
-12z"/>
<path d="M220 1240 c-24 -44 38 -83 70 -45 10 12 10 21 2 40 -14 31 -56 34
-72 5z"/>
<path d="M528 1235 c-13 -30 3 -55 36 -55 42 0 59 36 30 64 -23 24 -53 20 -66
-9z"/>
<path d="M1132 1183 c3 -27 6 -28 64 -31 64 -3 92 12 80 43 -4 11 -22 15 -76
15 l-71 0 3 -27z"/>
<path d="M1336 1194 c-14 -36 11 -44 134 -44 122 0 150 9 136 45 -9 23 -261
22 -270 -1z"/>
<path d="M91 966 c-16 -19 -11 -46 12 -60 25 -16 52 4 52 40 0 24 -5 30 -26
32 -14 2 -31 -4 -38 -12z"/>
<path d="M380 960 c-15 -28 4 -60 36 -60 31 0 54 41 34 65 -18 21 -57 19 -70
-5z"/>
<path d="M674 955 c-7 -29 10 -55 36 -55 24 0 42 24 38 52 -2 18 -10 24 -35
26 -28 3 -33 -1 -39 -23z"/>
<path d="M1393 874 c-20 -9 -15 -44 7 -52 11 -4 44 -5 73 -2 47 5 52 7 52 30
0 24 -3 25 -60 27 -33 1 -66 -1 -72 -3z"/>
<path d="M1591 866 c-6 -7 -9 -21 -5 -30 9 -23 261 -24 270 -1 4 8 1 22 -6 30
-17 21 -242 22 -259 1z"/>
<path d="M220 721 c-16 -31 4 -63 37 -59 55 7 55 69 0 76 -18 2 -29 -3 -37
-17z"/>
<path d="M532 728 c-27 -27 -6 -68 35 -68 31 0 52 42 33 65 -15 18 -51 20 -68
3z"/>
<path d="M95 443 c-20 -19 -16 -52 8 -67 25 -16 52 4 52 39 0 35 -36 52 -60
28z"/>
<path d="M390 442 c-17 -13 -21 -24 -16 -40 10 -31 55 -41 73 -16 17 24 13 43
-13 61 -19 12 -24 11 -44 -5z"/>
<path d="M686 447 c-22 -16 -18 -55 7 -71 39 -24 79 44 41 71 -10 7 -21 13
-24 13 -3 0 -14 -6 -24 -13z"/>
<path d="M220 190 c-15 -28 4 -60 36 -60 31 0 54 41 34 65 -18 21 -57 19 -70
-5z"/>
<path d="M530 195 c-20 -24 3 -65 35 -65 32 0 55 41 35 65 -16 19 -54 19 -70
0z"/>
</g>
</svg>
