<?xml version="1.0" encoding="utf-8"?>
<!-- Svg Vector Icons : http://www.onlinewebfonts.com/icon -->
<!DOCTYPE svg PUBLIC "-//W3C//DTD SVG 1.1//EN" "http://www.w3.org/Graphics/SVG/1.1/DTD/svg11.dtd">
<svg version="1.1" xmlns="http://www.w3.org/2000/svg" xmlns:xlink="http://www.w3.org/1999/xlink" x="0px" y="0px" viewBox="0 0 1000 1000" enable-background="new 0 0 1000 1000" xml:space="preserve">
<metadata> Svg Vector Icons : http://www.onlinewebfonts.com/icon </metadata>
<g><g transform="translate(0.000000,512.000000) scale(0.100000,-0.100000)"><path d="M4837.1,5010.3c-220.4-28.7-471.4-151.4-655.3-320c-258.7-237.6-402.4-540.3-421.5-896.7l-11.5-187.8h153.3h153.3l11.5,187.8c5.8,113.1,26.8,229.9,49.8,298.9c151.4,427.3,565.2,676.4,1017.5,609.3c364.1-51.7,630.4-277.8,753-634.2l42.2-126.5l5.7-2466l5.7-2466l147.5-103.5c155.2-109.2,360.2-314.2,461.8-461.8c34.5-47.9,95.8-159,136-245.3c327.6-684,208.9-1523.3-297-2080.9c-542.3-595.9-1462-764.5-2211.2-406.2c-820.1,394.7-1224.4,1308.7-979.1,2218.8c109.2,400.5,354.5,743.4,712.8,994.5l149.5,105.4V896.4v1866.3h-153.3h-153.3l-1.9-1785.8V-810.8l-130.3-99.6c-421.5-321.9-726.2-896.7-787.5-1490.7c-53.6-507.8,105.4-1069.2,419.6-1485c120.7-159,379.4-410.1,534.6-515.4c869.9-590.2,2000.4-480.9,2743.9,264.4c628.5,630.4,814.3,1563.5,469.4,2366.4c-118.8,274-235.7,444.5-459.9,672.6c-115,116.9-233.8,229.9-260.6,252.9l-49.8,38.3l-1.9,2374.1c-1.9,2628.9,5.7,2466-128.4,2738.1C5862.2,4791.9,5348.7,5077.4,4837.1,5010.3z"/><path d="M2509.1,4084.8v-153.3h383.2h383.2v153.3v153.3h-383.2h-383.2V4084.8z"/><path d="M6724.5,4084.8v-153.3h383.2h383.2v153.3v153.3h-383.2h-383.2V4084.8z"/><path d="M2815.6,3308.8v-143.7h229.9h229.9v143.7v143.7h-229.9h-229.9V3308.8z"/><path d="M6724.5,3308.8v-143.7h229.9h229.9v143.7v143.7h-229.9h-229.9V3308.8z"/><path d="M2509.1,2523.2v-143.7h383.2h383.2v143.7v143.7h-383.2h-383.2V2523.2z"/><path d="M6724.5,2523.2v-143.7h383.2h383.2v143.7v143.7h-383.2h-383.2V2523.2z"/><path d="M2823.3,1873.6c-5.7-13.4-7.7-80.5-3.8-147.5l5.7-122.6l226.1-5.7l224.2-5.8v155.2v153.3h-220.4C2886.5,1900.5,2831,1894.7,2823.3,1873.6z"/><path d="M6724.5,1747.2V1592l226.1,5.8l224.2,5.7v143.7v143.7l-224.2,5.8l-226.1,5.8V1747.2z"/><path d="M4827.5,1266.2c-126.5-24.9-281.7-107.3-337.2-182C4388.8,952,4388.8,952,4386.8-144v-1019.4l-118.8-70.9c-379.4-226.1-611.2-511.6-743.4-906.3c-216.5-649.6,49.8-1375.8,647.6-1766.6c450.3-295.1,1009.8-329.6,1513.7-92c65.2,32.6,118.8,67.1,118.8,76.6c0,15.4-116.9,210.8-143.7,243.4c-1.9,1.9-59.4-21.1-126.5-51.7c-207-97.7-341.1-122.6-592.1-111.1c-354.5,13.4-599.7,116.9-831.6,350.6c-224.2,226.1-333.4,479-350.7,814.3c-26.8,523.1,187.8,891,701.3,1201.4l231.9,141.8v1099.8V867.7l46,46c55.6,53.7,174.4,74.7,358.3,63.2c228-17.2,208.9,97.7,208.9-1188v-1107.5l245.3-161c277.8-182,457.9-358.3,555.7-542.3c70.9-134.1,138-375.5,138-498.2v-82.4h153.3h153.3v65.1c0,115-53.7,348.7-113.1,500.1c-126.5,314.2-318.1,544.2-634.2,756.9l-182,124.6l-9.6,1063.4c-7.7,942.7-13.4,1069.2-42.2,1120.9C5463.7,1226,5143.7,1327.5,4827.5,1266.2z"/><path d="M2509.1,971.2V827.4h383.2h383.2v143.7v143.7h-383.2h-383.2V971.2z"/><path d="M6724.5,971.2V827.4h383.2h383.2v143.7v143.7h-383.2h-383.2V971.2z"/><path d="M2815.6,185.5V41.8h229.9h229.9v143.7v143.7h-229.9h-229.9V185.5z"/><path d="M6724.5,185.5V41.8h229.9h229.9v143.7v143.7h-229.9h-229.9V185.5z"/><path d="M2509.1-590.5v-153.3h383.2h383.2v153.3v153.3h-383.2h-383.2V-590.5z"/><path d="M6724.5-590.5v-153.3h383.2h383.2v153.3v153.3h-383.2h-383.2V-590.5z"/></g></g>
</svg>