<?xml version="1.0" encoding="utf-8"?>
<!-- Svg Vector Icons : http://www.onlinewebfonts.com/icon -->
<!DOCTYPE svg PUBLIC "-//W3C//DTD SVG 1.1//EN" "http://www.w3.org/Graphics/SVG/1.1/DTD/svg11.dtd">
<svg version="1.1" xmlns="http://www.w3.org/2000/svg" xmlns:xlink="http://www.w3.org/1999/xlink" x="0px" y="0px" viewBox="0 0 1000 1000" enable-background="new 0 0 1000 1000" xml:space="preserve">
<metadata> Svg Vector Icons : http://www.onlinewebfonts.com/icon </metadata>
<g><path d="M500,137.8c227.7,0,413,185.3,413,413c0,227.7-185.2,413-413,413c-227.7,0-413-185.2-413-413C87,323.1,272.3,137.8,500,137.8 M500,111.5c-242.6,0-439.2,196.6-439.2,439.3C60.8,793.3,257.4,990,500,990c242.6,0,439.2-196.7,439.2-439.2C939.2,308.1,742.6,111.5,500,111.5L500,111.5z"/><path d="M83.7,217l-20.8-16c68.4-89.1,160.6-155.1,266.7-191l8.4,24.9C236.9,69.1,148.9,132.1,83.7,217z"/><path d="M894.9,217C829.5,132,741.5,69.1,640.5,34.9l8.4-24.8c105.9,35.8,198.1,101.9,266.8,191L894.9,217z"/><path d="M744,712.1L487.8,559.7V335.6h26.3v209.2l243.3,144.8L744,712.1z"/></g>
</svg>