<?xml version="1.0" encoding="utf-8"?>
<!-- Svg Vector Icons : http://www.onlinewebfonts.com/icon -->
<!DOCTYPE svg PUBLIC "-//W3C//DTD SVG 1.1//EN" "http://www.w3.org/Graphics/SVG/1.1/DTD/svg11.dtd">
<svg version="1.1" xmlns="http://www.w3.org/2000/svg" xmlns:xlink="http://www.w3.org/1999/xlink" x="0px" y="0px" viewBox="0 0 1000 1000" enable-background="new 0 0 1000 1000" xml:space="preserve">
<metadata> Svg Vector Icons : http://www.onlinewebfonts.com/icon </metadata>
<g><g><path d="M990,349.2V500c0,10.2-3.7,19-11.2,26.5c-7.5,7.5-16.3,11.2-26.5,11.2h-37.7c-10.2,0-19-3.7-26.5-11.2c-7.5-7.5-11.2-16.3-11.2-26.5V349.2c0-41.6-14.7-77.2-44.2-106.6c-29.4-29.4-65-44.2-106.6-44.2s-77.2,14.7-106.6,44.2c-29.4,29.4-44.2,65-44.2,106.6v113.1h56.5c15.7,0,29.1,5.5,40,16.5c11,11,16.5,24.3,16.5,40v339.2c0,15.7-5.5,29.1-16.5,40s-24.3,16.5-40,16.5H66.5c-15.7,0-29.1-5.5-40-16.5c-11-11-16.5-24.3-16.5-40V518.8c0-15.7,5.5-29.1,16.5-40c11-11,24.3-16.5,40-16.5h395.8V349.2c0-72.6,25.8-134.8,77.4-186.4c51.6-51.6,113.8-77.4,186.4-77.4c72.6,0,134.8,25.8,186.4,77.4C964.2,214.5,990,276.6,990,349.2L990,349.2z"/></g></g>
</svg>